<!DOCTYPE svg PUBLIC "-//W3C//DTD SVG 1.1//EN" "http://www.w3.org/Graphics/SVG/1.1/DTD/svg11.dtd">
<!-- Uploaded to: SVG Repo, www.svgrepo.com, Transformed by: SVG Repo Mixer Tools -->
<svg height="800px" width="800px" version="1.1" id="Layer_1" xmlns="http://www.w3.org/2000/svg" xmlns:xlink="http://www.w3.org/1999/xlink" viewBox="0 0 512 512" xml:space="preserve" fill="#000000">
<g id="SVGRepo_bgCarrier" stroke-width="0"/>
<g id="SVGRepo_tracerCarrier" stroke-linecap="round" stroke-linejoin="round"/>
<g id="SVGRepo_iconCarrier"> <circle style="fill:#a5f3fc;" cx="256" cy="256" r="256"/> <path style="fill:#a5f3fc;" d="M190.338,405.356L294.15,509.168c86.556-12.934,158.941-69.198,194.395-146.013L363.972,238.582 L190.338,405.356z"/> <path style="fill:#083344;" d="M287.494,265.447l-97.22,97.22c-11.783,11.783-11.781,30.884,0,42.667l0,0 c11.783,11.781,30.884,11.781,42.667,0l128-128c11.783-11.781,11.781-30.884,0-42.667l-128-128 c-11.783-11.781-30.884-11.781-42.667,0l0,0c-11.783,11.781-11.781,30.884,0,42.667l97.22,97.22 C292.712,251.771,292.712,260.23,287.494,265.447z"/> <path style="fill:#083344;" d="M291.407,256c0,3.418-1.305,6.839-3.913,9.447l-97.22,97.22c-11.783,11.781-11.783,30.884,0,42.667 l0,0c11.783,11.781,30.884,11.781,42.667,0l128-128c5.891-5.891,8.837-13.612,8.837-21.333H291.407z"/> </g>
</svg>